<svg width="140" height="140" viewBox="0 0 140 140" fill="none" xmlns="http://www.w3.org/2000/svg">
<circle cx="71" cy="70" r="54.5" stroke="#FF9E1D" stroke-width="5"/>
<path d="M70 109.417C91.7692 109.417 109.417 91.7691 109.417 69.9999C109.417 48.2307 91.7692 30.5833 70 30.5833C48.2308 30.5833 30.5833 48.2307 30.5833 69.9999C30.5833 91.7691 48.2308 109.417 70 109.417Z" fill="#FF9E1D" fill-opacity="0.5" stroke="#FF9E1D" stroke-width="2" stroke-linecap="round" stroke-linejoin="round"/>
<path d="M40.8372 96.5173C43.3084 96.0536 45.6576 95.086 47.7386 93.6749C49.8196 92.2638 51.5877 90.4393 52.9329 88.3151C54.2781 86.1908 55.1715 83.8124 55.5574 81.3279C55.9434 78.8434 55.8137 76.306 55.1763 73.8738C54.539 71.4416 53.4077 69.1667 51.8528 67.1907C50.298 65.2148 48.353 63.5801 46.139 62.3886C43.9249 61.1971 41.4892 60.4742 38.9836 60.2649C36.478 60.0557 33.9562 60.3646 31.5752 61.1724" stroke="#FF9E1D" stroke-width="2" stroke-linecap="round" stroke-linejoin="round"/>
<path d="M74.9775 41.7922C75.7369 41.7922 76.3525 41.1766 76.3525 40.4172C76.3525 39.6578 75.7369 39.0422 74.9775 39.0422C74.2181 39.0422 73.6025 39.6578 73.6025 40.4172C73.6025 41.1766 74.2181 41.7922 74.9775 41.7922Z" fill="#FF9E1D"/>
<path d="M67.5727 74.9482C68.3321 74.9482 68.9477 74.3326 68.9477 73.5732C68.9477 72.8139 68.3321 72.1982 67.5727 72.1982C66.8133 72.1982 66.1977 72.8139 66.1977 73.5732C66.1977 74.3326 66.8133 74.9482 67.5727 74.9482Z" fill="#FF9E1D"/>
<path d="M91.2227 70C91.982 70 92.5977 69.3844 92.5977 68.625C92.5977 67.8656 91.982 67.25 91.2227 67.25C90.4633 67.25 89.8477 67.8656 89.8477 68.625C89.8477 69.3844 90.4633 70 91.2227 70Z" fill="#FF9E1D"/>
<path d="M100.694 80.1125C101.453 80.1125 102.069 79.4969 102.069 78.7375C102.069 77.9782 101.453 77.3625 100.694 77.3625C99.9343 77.3625 99.3187 77.9782 99.3187 78.7375C99.3187 79.4969 99.9343 80.1125 100.694 80.1125Z" fill="#FF9E1D"/>
<path d="M62.234 102.705C62.9934 102.705 63.609 102.089 63.609 101.33C63.609 100.57 62.9934 99.9548 62.234 99.9548C61.4746 99.9548 60.859 100.57 60.859 101.33C60.859 102.089 61.4746 102.705 62.234 102.705Z" fill="#FF9E1D"/>
<path d="M79.6067 83.0901C79.6067 85.6705 80.6317 88.1453 82.4564 89.9699C84.281 91.7945 86.7557 92.8196 89.3362 92.8196C88.0585 92.8196 86.7933 93.0712 85.6128 93.5602C84.4324 94.0492 83.3598 94.7658 82.4564 95.6693C81.5529 96.5728 80.8362 97.6453 80.3473 98.8258C79.8583 100.006 79.6067 101.271 79.6067 102.549" stroke="#FF9E1D" stroke-width="2" stroke-linecap="round" stroke-linejoin="round"/>
<path d="M79.6067 102.551C79.6069 101.273 79.3554 100.008 78.8666 98.827C78.3777 97.6464 77.6611 96.5736 76.7576 95.6699C75.8541 94.7663 74.7815 94.0494 73.6009 93.5604C72.4204 93.0713 71.155 92.8196 69.8772 92.8196" stroke="#FF9E1D" stroke-width="2" stroke-linecap="round" stroke-linejoin="round"/>
<path d="M69.8753 92.8194C71.1532 92.8196 72.4186 92.5682 73.5992 92.0793C74.7799 91.5905 75.8527 90.8738 76.7563 89.9704C77.66 89.0669 78.3768 87.9942 78.8659 86.8136C79.355 85.6331 79.6067 84.3678 79.6067 83.0899M55.282 39.7261C55.282 41.9345 56.1593 44.0525 57.7209 45.6142C59.2825 47.1758 61.4006 48.0531 63.609 48.0531C61.4006 48.0531 59.2825 48.9322 57.7209 50.4938C56.1593 52.0554 55.282 54.1735 55.282 56.3819M95.9582 49.4886C95.9582 51.1092 96.602 52.6634 97.7479 53.8093C98.8938 54.9553 100.448 55.5991 102.069 55.5991C100.448 55.5991 98.8938 56.2429 97.7479 57.3888C96.602 58.5347 95.9582 60.089 95.9582 61.7096C95.9582 60.089 95.3144 58.5347 94.1685 57.3888C93.0225 56.2429 91.4683 55.5991 89.8477 55.5991C91.4683 55.5991 93.0225 54.9553 94.1685 53.8093C95.3144 52.6634 95.9582 51.1092 95.9582 49.4886Z" stroke="#FF9E1D" stroke-width="2" stroke-linecap="round" stroke-linejoin="round"/>
<path d="M55.282 56.3821C55.2822 55.2884 55.067 54.2054 54.6487 53.1949C54.2303 52.1844 53.617 51.2662 52.8437 50.4928C52.0705 49.7194 51.1524 49.1058 50.142 48.6873C49.1316 48.2687 48.0487 48.0532 46.955 48.0532" stroke="#FF9E1D" stroke-width="2" stroke-linecap="round" stroke-linejoin="round"/>
<path d="M46.955 48.0549C48.0487 48.0549 49.1316 47.8395 50.142 47.4209C51.1524 47.0023 52.0705 46.3888 52.8437 45.6153C53.617 44.8419 54.2303 43.9237 54.6487 42.9132C55.067 41.9028 55.2822 40.8197 55.282 39.7261" stroke="#FF9E1D" stroke-width="2" stroke-linecap="round" stroke-linejoin="round"/>
<path d="M41.8606 74.4463C41.5555 74.1752 41.5122 74.1809 41.5122 73.7495" stroke="#FF9E1D" stroke-width="3" stroke-linecap="round"/>
<path d="M42.0347 70.9624C40.7555 70.9624 41.9472 76.0393 41.9767 76.2752C42.215 78.1823 43.125 83.8709 42.9638 81.9558C42.7062 78.8974 42.0429 75.7903 41.3767 72.8011C41.2064 72.0372 41.2182 71.169 40.7573 70.5366C40.7003 70.4583 40.623 70.692 40.6122 70.7882C40.5211 71.5973 40.6456 73.8392 40.6702 74.3591C40.7765 76.5988 40.8824 78.8584 41.1638 81.0849C41.2007 81.3774 41.2471 81.6697 41.3186 81.9558C41.3428 82.0525 41.4665 81.7941 41.4638 81.6945C41.3808 78.6265 40.6925 74.9802 39.3831 72.2011C38.6224 70.5864 38.6323 72.7706 38.6283 73.2075C38.6076 75.4814 38.8476 77.7713 39.0735 80.03C39.1687 80.9827 39.3304 82.4554 39.4606 83.4848C39.4769 83.6143 39.5299 84.0019 39.5186 83.8719C39.4783 83.4079 39.2847 82.2704 39.2283 81.9945C38.8004 79.9003 38.1883 77.8598 37.438 75.8591C37.0966 74.9487 36.1757 72.3681 35.9961 73.3236C35.7337 74.7191 36.3234 76.6539 36.5574 77.9978C36.8336 79.584 37.1328 81.1667 37.4283 82.7494C37.8772 85.1528 36.2568 77.9944 35.4541 75.6849C35.3673 75.435 33.7557 71.6383 33.838 72.6753C34.0568 75.4321 34.7767 78.3685 35.4541 81.0461C36.0909 83.563 33.2307 70.953 33.3542 73.5462C33.4288 75.1133 33.8212 76.6561 33.9445 78.2204C33.9592 78.4069 34.0079 78.6024 33.9542 78.7816C33.8393 79.1647 33.6735 78.03 33.5864 77.6397C33.4014 76.8107 33.2051 75.9377 33.1509 75.0849C33.1375 74.8731 33.6834 77.5089 33.7606 78.0752C33.8606 78.8083 33.926 79.5641 34.0606 80.2913C34.106 80.5363 34.5783 81.0233 34.3316 80.9881C33.6946 80.8971 33.4136 76.377 33.3638 75.8591C33.092 73.0318 33.4701 70.005 34.3703 67.3043C34.7767 66.085 35.4466 64.9753 35.8993 63.7818C36.5097 62.1725 35.9606 63.5749 35.4735 64.4786C34.2061 66.8298 33.7115 69.1138 33.3155 71.6882C32.9608 73.9933 32.7751 66.967 33.2864 64.6915C34.0553 61.2701 33.4417 64.9726 33.1509 66.1721C32.834 67.4796 32.6417 71.4831 32.4639 70.1495C32.221 68.3279 33.0046 65.8421 33.5961 64.1689C33.814 63.5525 34.5408 63.1474 35.2025 63.1237C35.8956 63.099 36.5628 63.3403 37.2348 63.4624C37.3895 63.4906 35.2537 63.2979 34.738 63.2979C34.3002 63.2979 32.7748 63.5291 33.1122 63.2592C33.6544 62.8255 34.5369 62.6635 35.2219 62.6108C35.9947 62.5514 36.7886 62.6012 37.5638 62.6012C38.7066 62.6012 35.2548 62.4939 34.138 62.7366C33.2828 62.9226 35.1672 62.7938 35.3283 62.7753C37.3268 62.547 38.8191 62.3055 40.7476 62.9592C44.0106 64.0653 45.6707 66.6917 47.1444 69.6656C47.4567 70.2958 50.1242 75.8397 48.8282 75.8397" stroke="#FF9E1D" stroke-width="3" stroke-linecap="round"/>
<path d="M37.68 65.3882C37.6506 65.1245 37.5092 64.2773 37.4767 64.4882C37.2134 66.1997 37.0805 67.9437 37.1283 69.6753C37.1397 70.0852 37.8912 75.6881 38.1638 75.4526C38.9629 74.7625 38.5435 72.0161 38.4541 71.2527C38.3951 70.7479 37.5363 64.5428 36.0445 66.0076C34.6958 67.3317 34.8908 70.245 34.9606 71.9204C34.9748 72.2619 35.317 77.6745 36.8864 75.7817C38.26 74.125 38.4302 71.2206 38.1445 69.2011C37.9819 68.0523 36.9183 65.4671 35.7735 67.5366C34.7937 69.3078 34.5059 71.6531 34.6413 73.643C34.7775 75.6463 35.8876 76.126 36.48 74.001C36.8813 72.5615 36.9097 70.565 35.7445 69.4333C33.9199 67.6613 33.1264 70.8849 32.9477 72.0656C32.7892 73.1136 32.3237 75.4563 33.0735 76.4204C33.1884 76.5681 33.3982 76.1526 33.4026 75.9655C33.4362 74.538 33.0412 72.974 32.5703 71.6398C31.8015 69.4614 32.0891 72.647 32.1445 72.9752C32.4225 74.622 32.8906 76.2551 33.3735 77.8526C33.7574 79.1222 32.7155 72.5882 32.88 73.9043C33.4393 78.3787 34.5326 82.8902 35.4735 87.2977C35.7011 88.3639 35.8993 87.7168 35.8993 87.1332C35.8993 85.4097 35.4442 83.621 34.8542 82.0139C34.6196 81.3751 33.8521 79.5943 33.7897 80.2719C33.6452 81.8405 34.7029 83.735 35.3187 85.1106C35.7335 86.0373 36.1348 87.1035 36.7606 87.917C37.1334 88.4016 36.538 86.2339 36.5187 86.1751C36.1399 85.0194 35.6943 83.8872 35.3187 82.73C35.0783 81.9894 35.0332 82.0949 35.2509 82.73C35.2963 82.8623 35.7638 84.3503 35.7638 83.6784" stroke="#FF9E1D" stroke-width="3" stroke-linecap="round"/>
<path d="M37.5058 83.6784C36.9036 83.1431 36.4011 82.352 36.6154 83.9106C36.9378 86.2553 38.0059 88.6865 38.9961 90.8202C39.9195 92.8102 38.9425 90.4003 38.6283 89.7944C37.9039 88.3972 37.2473 87.0026 36.6735 85.5364C36.2134 84.3605 36.1358 84.2481 36.7896 85.5558C37.702 87.3805 38.496 89.385 39.6541 91.0718C39.9233 91.464 38.7571 88.6121 38.5316 88.188C37.9215 87.0411 36.1206 83.6111 36.9058 84.6461C38.2492 86.417 39.2124 88.4659 40.5638 90.2396C41.6021 91.6024 41.3473 90.3272 41.0283 89.4364C40.6305 88.3252 40.1404 87.2471 39.6928 86.1558C39.3219 85.2512 37.9274 82.7355 38.6187 83.4267C39.8097 84.6178 39.7975 87.4516 41.4444 88.2751C42.1325 88.6191 41.2498 84.3459 41.1541 84.0364C41.0214 83.6072 40.5148 82.417 40.4864 82.8655C40.4222 83.8801 40.9565 85.1473 41.2702 86.0687C41.4233 86.5181 41.877 88.3732 42.5186 88.6138C43.1153 88.8375 43.2267 86.2757 43.2541 86.117" stroke="#FF9E1D" stroke-width="3" stroke-linecap="round"/>
<path d="M42.3831 91.517C42.2538 91.517 41.2255 91.6576 41.3186 91.7879C41.7781 92.4312 43.7909 91.7365 44.1831 91.3331C45.0226 90.4696 40.7997 91.3319 42.0154 92.6879C42.5836 93.3218 44.2018 92.3497 44.5895 91.9041C45.4071 90.9645 43.8981 90.298 43.1186 90.4525C41.8056 90.7127 41.3995 92.5588 42.0347 93.5879C42.649 94.583 43.6735 93.6138 43.796 92.8137C44.1221 90.6834 39.3768 92.7493 41.638 95.0105C42.6687 96.0412 43.7656 94.2024 43.9508 93.3266C44.1531 92.3703 43.1694 92.2441 42.6638 92.8621C42.3785 93.2107 41.8959 93.975 41.938 94.4589C41.9933 95.0955 42.7299 93.4492 43.0412 92.8912C43.3762 92.2904 44.5414 93.9142 45.3444 92.9105" stroke="#FF9E1D" stroke-width="3" stroke-linecap="round"/>
<path d="M44.8218 91.8654C45.7589 92.8024 48.5309 89.552 46.5637 91.0331C46.2461 91.2723 44.7669 93.3008 45.5186 92.8331C46.7609 92.0601 47.8511 90.7057 48.6347 89.4847C48.966 88.9685 47.497 90.7186 47.3379 90.917C47.1273 91.1797 45.8926 93.3019 46.9508 92.2718C47.7942 91.4509 48.3918 90.4113 49.1573 89.5234C49.7592 88.8252 47.5964 90.5048 46.8154 90.9944C45.3883 91.889 44.0416 92.0765 42.4509 92.4653C41.9131 92.5968 39.9931 92.4319 40.1573 92.6782C40.4049 93.0496 40.9912 93.4949 40.4283 92.8041C40.0479 92.3372 38.6186 91.217 39.0445 91.6428C39.6582 92.2565 40.2976 92.642 40.8154 91.8654" stroke="#FF9E1D" stroke-width="3" stroke-linecap="round"/>
<path d="M43.2541 81.9365C43.1859 80.028 43.2174 83.1108 43.2734 83.5429C43.3983 84.5059 43.482 85.6266 43.8928 86.5235C44.4377 87.7132 44.8469 86.2119 44.8799 85.73C44.9416 84.8261 44.82 83.8511 44.5412 82.9913C44.46 82.7409 43.0012 79.301 42.4218 80.2236C41.9505 80.9742 42.4538 82.7192 42.6154 83.4461C43.0292 85.3081 43.5424 87.783 44.7444 89.33C45.4005 90.1745 45.8858 89.2004 46.0895 88.6332C46.6829 86.9813 46.7592 85.0476 46.3895 83.3397C46.1584 82.2716 45.7435 80.8586 45.0154 80.001C44.3347 79.1994 44.4891 82.1 44.667 83.1365C44.8286 84.0783 46.4032 91.728 48.0831 88.3332C48.7691 86.9468 48.9446 85.3798 48.5766 83.8816C48.5124 83.6202 47.7137 80.9215 46.9605 81.9849C46.2054 83.0509 46.3363 87.8358 48.2282 87.9364C48.9741 87.9761 49.5933 86.4574 49.7863 86.0493C50.5717 84.3885 51.2694 82.3517 50.7443 80.5042C50.491 79.613 49.944 79.4941 49.5637 80.3881C48.8265 82.121 48.7713 84.3265 49.0605 86.1558C49.1158 86.5056 49.4316 88.8891 50.2992 88.7784C51.2413 88.6581 51.6975 86.0393 51.8282 85.3913C52.03 84.3903 52.2095 83.233 52.0604 82.2074C51.9735 81.6089 51.2409 83.1419 51.054 83.7171C50.6466 84.971 50.2932 86.2596 50.0185 87.5493C50.0034 87.6205 49.573 90.0563 50.3669 88.8171C51.0582 87.738 51.4089 86.4168 51.8475 85.2268C52.1028 84.5343 53.0999 82.5684 52.6798 83.1752C52.3965 83.5844 50.0287 87.6527 50.4153 87.7816C51.1017 88.0104 53.1908 82.592 53.3959 82.0816C53.5097 81.7986 54.8587 77.9327 53.6669 77.9881C52.6541 78.0352 52.2948 82.5956 52.1669 83.2913C51.7137 85.7554 52.4723 83.3873 52.7379 82.4397C53.2949 80.452 53.9081 78.3084 53.3766 76.2462C52.9897 74.745 52.1263 73.4554 51.6153 72.0075C51.2302 70.9165 51.366 73.1576 51.3734 73.2946C51.4903 75.4694 51.0942 78.9639 52.2056 80.9397C52.4638 81.3987 52.1973 79.883 52.1185 79.3623C51.7526 76.9443 51.2785 74.4755 50.2992 72.2204C49.5353 70.4613 48.3287 68.6535 47.0186 67.2463C46.8832 67.1009 45.9184 66.1175 45.6347 66.4721C45.6086 66.5048 48.196 69.5054 48.2282 69.5495C50.0068 71.9822 51.2027 74.5388 51.5766 77.543C51.6383 78.0389 51.6305 80.6382 51.6056 80.5429C50.9093 77.8738 51.8124 72.8949 49.3508 71.1366" stroke="#FF9E1D" stroke-width="3" stroke-linecap="round"/>
<path d="M43.9508 66.0849C42.7919 65.969 43.139 65.6306 43.7379 67.0139C44.2228 68.1337 48.5243 79.3607 48.9443 79.2557C49.0905 79.2192 44.4332 67.915 43.0315 66.7526C42.4322 66.2557 42.5043 68.29 42.6444 69.0558C43.2001 72.0935 44.1345 75.2005 45.5186 77.9686C45.5907 78.1129 46.9732 80.959 47.6282 80.1557C48.7299 78.8046 46.6285 74.9262 46.167 73.8074C45.3118 71.7346 44.4653 69.3597 43.0992 67.5462C41.7485 65.7529 41.657 67.7683 41.8799 68.93C42.598 72.6734 43.5854 76.7635 45.296 80.1847C46.067 81.7268 47.2644 82.2393 47.3186 80.117C47.3771 77.8232 46.6138 75.5964 45.6347 73.5558C44.4719 71.1322 42.9723 68.1937 40.9315 66.3655C40.0093 65.5394 40.7141 67.6083 40.7477 67.701C41.2143 68.9905 42.1593 71.6596 43.5638 72.259C44.3517 72.5953 44.2152 71.2485 44.1444 70.9429C43.7856 69.395 42.9281 67.649 41.8218 66.501C39.9798 64.5895 41.6805 72.1153 43.0992 70.9235C44.2032 69.9962 41.4313 65.0647 40.1573 66.1236C39.6036 66.5838 39.4439 67.7745 39.8477 68.3687C40.6231 69.5099 41.836 66.9952 41.9186 66.472C42.2307 64.4952 39.941 63.6859 39.8477 65.8333C39.8166 66.5482 40.6588 66.4632 41.1638 66.6074" stroke="#FF9E1D" stroke-width="3" stroke-linecap="round"/>
<path d="M41.338 63.6463C40.1776 63.5174 41.7157 63.803 42.1702 63.9947C45.2515 65.2946 47.8608 67.1606 50.1056 69.6269C50.6294 70.2024 51.4888 70.94 51.8088 71.6785C52.123 72.4037 50.6198 70.6365 50.0476 70.0914" stroke="#FF9E1D" stroke-width="3" stroke-linecap="round"/>
<path d="M40.8154 62.2526C40.5304 61.927 41.4278 62.2169 41.5799 62.2526C43.4173 62.685 45.8141 63.6394 47.1637 64.972C48.592 66.3822 49.7445 68.4986 50.454 70.3816C50.7015 71.0384 49.7212 70.0741 49.525 69.9171" stroke="#FF9E1D" stroke-width="3" stroke-linecap="round"/>
<path d="M44.4734 64.343C46.1491 64.5525 48.3029 67.4173 49.1863 68.5139C50.8574 70.5884 52.2427 73.0147 52.7572 75.6461C52.7854 75.79 52.8189 78.057 52.4863 77.059" stroke="#FF9E1D" stroke-width="3" stroke-linecap="round"/>
<path d="M49.6992 68.1753C49.8239 67.0533 50.877 68.7773 50.9282 68.8915C51.9214 71.107 53.2253 73.8067 53.3282 76.2753C53.3812 77.5484 52.7914 75.9798 52.6604 75.6656" stroke="#FF9E1D" stroke-width="3" stroke-linecap="round"/>
<path d="M54.925 44.8335C55.2498 45.1989 54.9057 45.9557 54.7701 46.3625C54.5413 47.049 53.7031 49.0529 53.9572 48.3754C54.3049 47.4483 54.5483 46.4771 54.9927 45.5883C55.2713 45.0311 55.1221 45.3948 55.0024 45.7432C54.7125 46.5863 54.3586 47.3819 53.8121 48.0948C52.9585 49.2081 53.6287 47.2708 53.5314 47.3109C53.0885 47.4933 52.045 48.1857 52.5056 48.3173C53.47 48.5929 55.0991 50.2128 55.0991 51.3463C55.0991 51.8449 55.0973 50.2927 55.3701 49.8754C55.7338 49.3192 56.2347 48.1431 57.054 48.1431C57.3052 48.1431 55.5693 49.6854 55.312 49.9818C54.7076 50.6785 55.1025 51.1817 54.6733 51.7334C54.2291 52.3046 54.9062 51.2879 55.0121 51.0173C55.3433 50.1709 56.9718 49.0559 57.0153 48.3173C57.0589 47.5751 55.6461 46.8518 55.3798 46.1593C55.235 45.7828 55.8031 45.6138 55.2733 45.8786" stroke="#FF9E1D" stroke-width="3" stroke-linecap="round"/>
<path d="M57.3636 47.7949C57.3636 48.7814 60.2272 47.8438 58.9313 48.4917" stroke="#FF9E1D" stroke-width="3" stroke-linecap="round"/>
<path d="M78.7893 90.9945C78.7324 90.5397 78.0245 91.4251 77.9183 91.5558C77.3465 92.2596 76.4954 92.9334 75.6732 93.3171C75.0195 93.6221 76.9508 92.6466 77.5989 92.33C78.8364 91.7257 76.3095 93.0212 75.9441 93.23C75.5652 93.4465 75.9574 93.0625 76.3506 93.259" stroke="#FF9E1D" stroke-width="3" stroke-linecap="round"/>
<path d="M76.6989 93.259C76.4004 93.2217 77.5261 94.2865 77.7635 94.5751C78.5699 95.5559 79.4728 97.279 78.2667 95.3493" stroke="#FF9E1D" stroke-width="3" stroke-linecap="round"/>
<path d="M77.5699 93.9556C78.2225 94.0281 79.3274 96.9479 78.9634 96.2201" stroke="#FF9E1D" stroke-width="3" stroke-linecap="round"/>
<path d="M78.6151 96.7427C78.7317 95.5767 80.0573 94.2136 80.6473 93.3363C81.2225 92.481 82.4819 91.134 81.0537 92.5621" stroke="#FF9E1D" stroke-width="3" stroke-linecap="round"/>
<path d="M79.6602 94.8266C81.0328 94.6741 80.8679 91.9629 80.5989 90.9944C80.232 89.6736 79.7771 89.779 80.2795 91.1492C80.9207 92.8978 80.4936 91.5785 80.1828 90.646" stroke="#FF9E1D" stroke-width="3" stroke-linecap="round"/>
<path d="M80.0086 89.0783C80.0086 88.3867 80.5291 91.7886 80.3183 91.1299C80.0147 90.1813 79.8535 89.1057 79.8344 88.1106C79.8231 87.5239 79.6903 88.1092 79.486 88.3816" stroke="#FF9E1D" stroke-width="3" stroke-linecap="round"/>
<path d="M80.0086 88.3816C80.0086 89.2017 80.3225 90.0654 80.5408 90.8396C80.7558 91.6018 80.7716 92.6461 81.6537 92.0396C81.8893 91.8777 82.6239 91.5886 81.9828 91.6912C81.2687 91.8055 80.3133 92.4782 81.5182 92.0977C82.1035 91.9129 83.9116 91.2528 82.4086 92.1751C82.2371 92.2803 80.8338 92.8067 81.6731 92.7267C82.2005 92.6765 83.1792 92.1617 82.0698 92.4944C81.428 92.687 79.8233 93.9558 80.3957 93.6073C80.9297 93.2823 81.5469 93.0518 82.0989 92.7364" stroke="#FF9E1D" stroke-width="3" stroke-linecap="round"/>
<path d="M80.7053 93.4331C80.4899 93.6246 80.0324 93.7815 80.5312 93.7815C81.4997 93.7815 82.6876 93.2605 83.6085 93.0073C85.3197 92.5367 83.1001 93.4992 82.6408 93.6944C81.8358 94.0365 80.5312 94.5272 80.5312 95.5234" stroke="#FF9E1D" stroke-width="3" stroke-linecap="round"/>
<path d="M81.7505 94.6523C81.2184 94.6523 80.8804 95.462 80.6473 95.8523C80.2907 96.4495 78.3754 99.1902 79.8344 97.4394" stroke="#FF9E1D" stroke-width="3" stroke-linecap="round"/>
<path d="M95.6859 54.4141C95.2993 54.457 95.2868 54.9354 95.202 55.2463C95.1685 55.3692 95.4609 54.9671 95.2891 54.7237C94.8751 54.1372 94.4762 55.3434 94.4955 55.6141C94.5612 56.5335 95.6655 55.6316 95.4246 55.1979C95.2037 54.8004 95.2502 55.4589 95.3375 55.6334" stroke="#FF9E1D" stroke-width="3" stroke-linecap="round"/>
<path d="M96.3826 54.7625C95.9667 55.2304 95.8244 55.9689 95.7052 56.5528C95.4127 57.986 97.0839 55.6882 97.1762 55.227C97.2868 54.6738 96.5147 56.1762 96.3923 56.7269C96.288 57.1962 96.8128 55.8591 97.0794 55.4592" stroke="#FF9E1D" stroke-width="3" stroke-linecap="round"/>
</svg>
