<svg width="140" height="140" viewBox="0 0 140 140" fill="none" xmlns="http://www.w3.org/2000/svg">
<circle cx="71" cy="70" r="54.5" stroke="#FF9E1D" stroke-width="5"/>
<g clip-path="url(#clip0_74_1080)">
<path opacity="0.5" d="M92.908 33.9744C94.6828 32.9777 95.8443 32.3337 96.7682 31.9657C97.6345 31.6207 98.014 31.6399 98.2747 31.705C98.5277 31.774 98.8612 31.935 99.4285 32.6519C100.038 33.4147 100.709 34.5302 101.732 36.2552L105.964 43.3699C106.992 45.0949 107.651 46.2142 108.03 47.1035C108.383 47.9392 108.356 48.2842 108.299 48.5065C108.234 48.7327 108.076 49.0509 107.329 49.6067C106.543 50.197 105.389 50.8487 103.611 51.8454L88.538 60.2864C86.859 61.2294 85.7703 61.835 84.9078 62.1762C84.1028 62.4982 83.7732 62.4714 83.5662 62.4139C83.3553 62.3602 83.0563 62.2222 82.5197 61.5437C81.9447 60.823 81.3122 59.7612 80.3347 58.1167L75.8113 50.5229C74.807 48.8324 74.163 47.736 73.7912 46.8697C73.4462 46.0532 73.473 45.7197 73.5305 45.5127C73.5842 45.3057 73.7298 45.0029 74.4428 44.47C75.2018 43.895 76.3173 43.2702 78.0462 42.3004L92.908 33.9744ZM49.4035 63.0847L36.3893 70.3757C34.6107 71.3724 33.4568 72.024 32.671 72.6105C31.9235 73.1702 31.7663 73.4884 31.705 73.7107C31.6437 73.933 31.6168 74.278 31.9695 75.1137C32.3452 76.003 33.0083 77.1262 34.0357 78.8512C35.063 80.5762 35.73 81.6917 36.3357 82.4545C36.9068 83.1714 37.2403 83.3362 37.4933 83.4014C37.754 83.4704 38.1335 83.4857 39.0037 83.1407C39.9237 82.7727 41.0852 82.1287 42.86 81.132L55.8052 73.8794C55.1995 73.0207 54.5747 71.9627 53.8693 70.7859L51.3317 66.5194C50.565 65.2314 49.8903 64.0929 49.4035 63.0847Z" fill="#FF9E1D"/>
<path d="M57.1123 56.3917L70.3335 48.9895C70.8203 49.9977 71.4988 51.1362 72.2655 52.4242L76.9192 60.2442C77.6207 61.4248 78.2493 62.479 78.8512 63.3415L72.921 66.6612L88.929 104.19C89.0821 104.552 89.1619 104.941 89.1637 105.334C89.1656 105.727 89.0894 106.117 88.9397 106.48C88.79 106.844 88.5697 107.174 88.2915 107.452C88.0133 107.73 87.6827 107.95 87.319 108.1C86.5809 108.41 85.7503 108.416 85.0075 108.118C84.2646 107.819 83.6696 107.24 83.3515 106.505L70 75.2057L56.6485 106.505C56.3304 107.239 55.736 107.817 54.9941 108.116C54.2521 108.414 53.4224 108.409 52.6848 108.1C52.3211 107.95 51.9905 107.73 51.7124 107.452C51.4342 107.174 51.2138 106.844 51.0641 106.48C50.9144 106.117 50.8383 105.727 50.8401 105.334C50.8419 104.941 50.9217 104.552 51.0748 104.19L65.2428 70.9622C63.7018 71.8247 62.6783 72.3882 61.858 72.714C61.053 73.036 60.7233 73.0092 60.5163 72.9517C60.3055 72.898 60.0065 72.76 59.4698 72.0815C58.8987 71.3608 58.2623 70.299 57.2848 68.6545L54.8813 64.6142C53.8732 62.9275 53.2292 61.8312 52.8573 60.961C52.5123 60.1445 52.5392 59.811 52.5967 59.6078C52.6542 59.397 52.796 59.098 53.509 58.5613C54.268 57.9902 55.3873 57.3615 57.1123 56.3955V56.3917Z" fill="#FF9E1D"/>
</g>
<defs>
<clipPath id="clip0_74_1080">
<rect width="92" height="92" fill="white" transform="translate(24 24)"/>
</clipPath>
</defs>
</svg>
