<svg width="140" height="140" viewBox="0 0 140 140" fill="none" xmlns="http://www.w3.org/2000/svg">
<circle cx="71" cy="70" r="54.5" stroke="#FF9E1D" stroke-width="5"/>
<path d="M90.3745 91.4868C85.3886 93.7781 77.3829 96.4375 69.2911 96.4375C64.782 96.4439 60.3193 95.5268 56.1781 93.7428C54.8699 93.1945 53.6597 92.6187 52.6061 92.1174L51.7953 91.7297C50.5107 91.1265 49.5433 90.7074 48.6894 90.4763C45.1163 89.5312 41.4587 88.9409 37.7698 88.7138C36.174 88.6103 34.5747 88.5711 32.9758 88.5963L32.9209 88.6003H32.9092L32.729 88.6081C34.8465 94.3867 38.6183 99.4141 43.574 103.063C48.5297 106.713 54.4501 108.822 60.5968 109.129C66.7435 109.436 72.8446 107.927 78.1393 104.79C83.4339 101.652 87.6918 97.0257 90.3745 91.4868ZM34.9184 62.3508L36.677 63.8861L36.7318 63.9292C37.1558 64.2714 37.5922 64.598 38.04 64.9083C38.9918 65.5742 40.4135 66.475 42.2387 67.3758C45.8968 69.1853 51.1138 70.9792 57.404 70.9792C61.5439 70.9792 64.6968 69.9608 67.368 68.7663C68.4373 68.2884 69.3929 67.7988 70.3603 67.3014L71.2063 66.8706C72.4048 66.2635 73.713 65.629 75.0447 65.2373C78.4347 64.237 81.9175 63.5835 85.4395 63.2868C86.7578 63.1784 88.0806 63.1353 89.4032 63.1576L89.6499 63.1654L89.7243 63.1693H89.7596L89.8693 63.1772C87.2046 58.1411 83.2171 53.927 78.3358 50.9885C73.4545 48.0499 67.8642 46.4981 62.1667 46.5C56.6293 46.4987 51.1905 47.9649 46.4041 50.7492C41.6176 53.5336 37.6546 57.5366 34.9184 62.3508Z" fill="#FF9E1D"/>
<path opacity="0.5" d="M92.8968 83.9864C93.8737 79.0844 93.6696 74.0203 92.3015 69.2128L89.411 69.0326H89.3796C89.3522 69.0326 89.3013 69.0326 89.2269 69.0248C88.1225 69.009 87.018 69.0469 85.9173 69.1383C83.6378 69.3263 80.4105 69.7846 76.7014 70.8734C75.9416 71.0967 75.0603 71.5001 73.8618 72.1111L73.1137 72.491C72.1346 72.9963 70.9948 73.5799 69.7689 74.1282C66.5846 75.5539 62.6014 76.8503 57.404 76.8503C49.9897 76.8503 43.8797 74.7392 39.6341 72.6398C37.9147 71.7941 36.2599 70.8228 34.6834 69.7337C34.0982 69.3272 33.5285 68.8986 32.9757 68.449L32.87 68.3589L32.8386 68.3315L32.8269 68.3198H32.823C32.823 68.3198 32.8191 68.3159 34.7186 66.1382L32.8191 68.3158L32.4196 67.9633C30.8464 72.7392 30.4368 77.8218 31.225 82.7879L32.6741 82.7292H32.7133L32.7995 82.7253L33.1089 82.7174C34.7942 82.6979 36.4796 82.7436 38.1614 82.8545C42.2436 83.1036 46.2911 83.7569 50.2443 84.805C51.6386 85.1888 53.0212 85.8077 54.3098 86.4148L55.2106 86.8456C56.2486 87.3391 57.2865 87.8365 58.4419 88.3183C61.8669 89.8042 65.5615 90.5682 69.295 90.5625C77.6845 90.5625 86.262 87.1746 90.1316 85.0479L92.7049 83.6379L92.8968 83.9864Z" fill="#FF9E1D"/>
<path opacity="0.5" fill-rule="evenodd" clip-rule="evenodd" d="M103.409 38.8429C103.118 38.0938 102.714 37.3937 102.211 36.7671C103.487 36.4107 104.361 36.3872 104.584 36.7789C104.811 37.1705 104.357 37.9147 103.409 38.8429ZM89.9985 46.5784C88.7216 46.9348 87.8521 46.9583 87.625 46.5666C87.3978 46.1749 87.8521 45.4308 88.8 44.5025C89.0916 45.2514 89.4957 45.9514 89.9985 46.5784ZM89.9985 46.5784C91.7805 46.0849 94.3577 44.9412 97.0876 43.3667C99.8097 41.7922 102.089 40.1394 103.409 38.8429C104.086 40.5867 104.117 42.5113 103.496 44.2758C102.875 46.0403 101.643 47.5242 100.022 48.4593C98.4023 49.3943 96.501 49.7186 94.6624 49.3736C92.8239 49.0287 91.1695 48.0371 89.9985 46.5784ZM88.8 44.5025C88.1206 42.7584 88.0882 40.8287 88.7086 39.0628C89.329 37.2969 90.5612 35.8115 92.1822 34.8755C93.8031 33.9396 95.7056 33.615 97.5452 33.9606C99.3847 34.3061 101.04 35.2989 102.211 36.7593C100.429 37.2567 97.8514 38.4004 95.1254 39.9709C92.3994 41.5494 90.1199 43.2061 88.8 44.5025Z" fill="#FF9E1D"/>
</svg>
