<svg width="140" height="140" viewBox="0 0 140 140" fill="none" xmlns="http://www.w3.org/2000/svg">
<circle cx="71" cy="70" r="54.5" stroke="#FF9E1D" stroke-width="5"/>
<path opacity="0.5" d="M102.833 69.5001C102.833 78.0754 99.4268 86.2995 93.3631 92.3632C87.2994 98.4269 79.0753 101.833 70.5 101.833C61.9247 101.833 53.7005 98.4269 47.6369 92.3632C41.5732 86.2995 38.1667 78.0754 38.1667 69.5001C38.1667 60.9247 41.5732 52.7006 47.6369 46.637C53.7005 40.5733 61.9247 37.1667 70.5 37.1667C79.0753 37.1667 87.2994 40.5733 93.3631 46.637C99.4268 52.7006 102.833 60.9247 102.833 69.5001Z" fill="#FF9E1D"/>
<path d="M93.586 43.0393C97.8176 42.2593 101.694 41.9925 104.891 42.425C108.003 42.8413 111.099 44.0134 112.796 46.7253C114.599 49.6111 114.057 52.9576 112.748 55.8514C111.414 58.7937 109.037 61.9099 105.99 65.0179C99.8627 71.2704 90.486 78.0563 79.327 84.0016C68.1599 89.9509 57.118 94.0411 48.2304 95.8033C43.8048 96.6803 39.751 97.0117 36.4166 96.6156C33.1833 96.2317 29.95 95.0677 28.2039 92.2709C26.3044 89.2315 27.0076 85.6829 28.4869 82.6557C30.0025 79.5517 32.6579 76.2456 36.0529 72.9436L38.1667 71.1814C38.1667 72.0666 38.5021 74.051 38.8457 75.8132C39.0275 76.7428 39.2094 77.6077 39.3428 78.222C36.7076 80.9138 34.905 83.3266 33.931 85.3192C32.8114 87.6108 33.0903 88.6536 33.345 89.0577C33.636 89.5266 34.5777 90.2904 37.132 90.5936C39.5934 90.8886 42.952 90.6663 47.0543 89.8539C55.2185 88.2373 65.6985 84.3936 76.4776 78.6504C87.2567 72.9113 96.0797 66.4648 101.657 60.7741C104.462 57.9167 106.305 55.3826 107.223 53.3536C108.164 51.2722 107.898 50.3224 107.655 49.9425C107.372 49.4898 106.487 48.7542 104.086 48.4309C101.896 48.1399 98.9452 48.2652 95.3441 48.8836L90.1829 43.8598C91.549 43.4516 92.8423 43.1727 93.586 43.0393Z" fill="#FF9E1D"/>
</svg>
