<svg width="140" height="140" viewBox="0 0 140 140" fill="none" xmlns="http://www.w3.org/2000/svg">
<circle cx="71" cy="70" r="54.5" stroke="#FF9E1D" stroke-width="5"/>
<path opacity="0.3" d="M70 84.45L54.02 94.0975L58.27 75.9076L44.16 63.6676L62.775 62.0525L70 44.925L77.2675 62.0951L95.8825 63.7101L81.7725 75.95L86.0225 94.14L70 84.45Z" fill="#FF9E1D"/>
<path d="M112.5 58.27L81.9425 55.635L70 27.5L58.0575 55.6775L27.5 58.27L50.705 78.3725L43.735 108.25L70 92.3975L96.265 108.25L89.3375 78.3725L112.5 58.27ZM70 84.45L54.02 94.0975L58.27 75.9075L44.16 63.6675L62.775 62.0525L70 44.925L77.2675 62.095L95.8825 63.71L81.7725 75.95L86.0225 94.14L70 84.45Z" fill="#FF9E1D"/>
</svg>
