<svg width="140" height="140" viewBox="0 0 140 140" fill="none" xmlns="http://www.w3.org/2000/svg">
<circle cx="71" cy="70" r="54.5" stroke="#FF9E1D" stroke-width="5"/>
<g clip-path="url(#clip0_74_1069)">
<path d="M103.909 37.8036C102.345 43.0193 99.286 52.8571 95.6479 63.0991C96.5911 63.3813 97.4543 63.6382 98.1554 63.853C98.4609 63.9461 98.7421 64.1057 98.9787 64.3203C99.2153 64.535 99.4015 64.7993 99.5238 65.0944C99.6462 65.3895 99.7017 65.708 99.6865 66.0271C99.6712 66.3461 99.5855 66.6579 99.4355 66.9399C96.4564 72.6401 88.2917 87.5314 80.2344 95.8342C80.0996 95.9815 79.9648 96.1711 79.8301 96.3059C74.9067 101.231 68.2286 103.998 61.2649 103.999C54.3013 103.999 47.6225 101.234 42.6978 96.3106C37.7732 91.3872 35.006 84.7091 35.0051 77.7455C35.0042 70.7818 37.7697 64.103 42.6931 59.1784C42.8279 59.0436 43.0174 58.9088 43.1648 58.7741C51.4663 50.7009 66.3408 42.5476 72.0549 39.5702C72.3369 39.4202 72.6486 39.3345 72.9677 39.3192C73.2868 39.304 73.6053 39.3595 73.9003 39.4819C74.1954 39.6043 74.4597 39.7905 74.6743 40.0271C74.8889 40.2637 75.0484 40.5449 75.1414 40.8505C75.3561 41.5369 75.6131 42.4129 75.8952 43.3562C86.1231 39.7175 95.9722 36.6581 101.187 35.0956C101.564 34.9816 101.965 34.9718 102.347 35.0671C102.729 35.1624 103.078 35.3593 103.357 35.6369C103.636 35.9146 103.835 36.2626 103.932 36.644C104.029 37.0255 104.021 37.4262 103.909 37.8036ZM78.1184 78.1255C78.118 74.7144 77.106 71.38 75.2106 68.544C73.3152 65.708 70.6213 63.4977 67.4698 62.1927C64.3182 60.8876 60.8504 60.5464 57.5049 61.2121C54.1594 61.8779 51.0865 63.5207 48.6746 65.9329C46.2628 68.3451 44.6203 71.4182 43.955 74.7638C43.2897 78.1094 43.6314 81.5772 44.9369 84.7286C46.2424 87.88 48.453 90.5735 51.2893 92.4685C54.1255 94.3636 57.46 95.3751 60.8711 95.3751C63.1363 95.3751 65.3793 94.929 67.472 94.0621C69.5647 93.1952 71.4662 91.9246 73.0678 90.3228C74.6694 88.7209 75.9398 86.8193 76.8064 84.7264C77.673 82.6336 78.1188 80.3906 78.1184 78.1255ZM60.8711 73.813C60.871 74.6657 60.618 75.4993 60.1441 76.2083C59.6702 76.9173 58.9968 77.4698 58.2089 77.7961C57.421 78.1223 56.5541 78.2076 55.7177 78.0412C54.8814 77.8748 54.1131 77.4641 53.5102 76.861C52.9072 76.258 52.4966 75.4897 52.3303 74.6533C52.1639 73.8169 52.2493 72.95 52.5757 72.1622C52.902 71.3743 53.4547 70.7009 54.1637 70.2272C54.8728 69.7534 55.7064 69.5005 56.5591 69.5005C57.1256 69.4998 57.6867 69.6109 58.2102 69.8274C58.7336 70.0439 59.2093 70.3616 59.6098 70.7621C60.0104 71.1627 60.3279 71.6384 60.5444 72.1619C60.7608 72.6854 60.8718 73.2465 60.8711 73.813ZM65.1829 84.5938C65.1829 85.0202 65.0564 85.437 64.8195 85.7915C64.5825 86.1461 64.2458 86.4224 63.8518 86.5855C63.4579 86.7486 63.0244 86.7913 62.6062 86.7081C62.188 86.6249 61.8038 86.4195 61.5023 86.118C61.2009 85.8164 60.9955 85.4323 60.9124 85.0141C60.8292 84.5959 60.8719 84.1624 61.0351 83.7684C61.1983 83.3745 61.4746 83.0378 61.8292 82.8009C62.1837 82.564 62.6005 82.4376 63.027 82.4376C63.5982 82.4394 64.1456 82.6672 64.5495 83.0712C64.9534 83.4752 65.1812 84.0225 65.1829 84.5938Z" fill="#FF9E1D"/>
</g>
<defs>
<clipPath id="clip0_74_1069">
<rect width="69" height="69" fill="white" transform="translate(35 35)"/>
</clipPath>
</defs>
</svg>
