<svg width="149" height="161" viewBox="0 0 149 161" fill="none" xmlns="http://www.w3.org/2000/svg">
<path d="M140.719 34.999L86.0188 3.1076C82.5184 1.07201 78.5442 0 74.4982 0C70.4522 0 66.478 1.07201 62.9776 3.1076L8.28096 34.999C8.06552 35.1258 7.88687 35.3069 7.76273 35.5244C7.6386 35.7419 7.57329 35.9881 7.57329 36.2387C7.57329 36.4893 7.6386 36.7356 7.76273 36.953C7.88687 37.1705 8.06552 37.3516 8.28096 37.4784L73.7836 76.1362C74.004 76.2664 74.255 76.3351 74.5107 76.3351C74.7664 76.3351 75.0175 76.2664 75.2378 76.1362L140.726 37.4784C140.941 37.351 141.119 37.1694 141.243 36.9515C141.366 36.7337 141.431 36.4873 141.43 36.2367C141.43 35.9861 141.364 35.74 141.239 35.5229C141.114 35.3058 140.935 35.1252 140.719 34.999ZM74.5 43.1309C69.7542 43.1309 65.9038 40.558 65.9038 37.3814C65.9038 34.2049 69.7542 31.632 74.5 31.632C79.2458 31.632 83.0961 34.2049 83.0961 37.3814C83.0961 40.558 79.2458 43.1309 74.5 43.1309ZM68.0529 85.824L2.14904 47.2561C1.93135 47.13 1.68443 47.0636 1.43306 47.0635C1.18169 47.0634 0.934735 47.1297 0.716981 47.2557C0.499228 47.3817 0.318344 47.5629 0.192494 47.7812C0.0666441 47.9995 0.000257675 48.2472 0 48.4994V110.996C0.00540735 114.007 0.796466 116.964 2.2945 119.574C3.79254 122.183 5.94535 124.353 8.53884 125.869L66.6202 160.807C66.8379 160.934 67.0848 161 67.3362 161C67.5875 161 67.8345 160.934 68.0522 160.808C68.27 160.682 68.4509 160.501 68.5767 160.282C68.7026 160.064 68.769 159.816 68.7692 159.564V87.0673C68.769 86.8153 68.7026 86.5677 68.5769 86.3495C68.4512 86.1313 68.2705 85.95 68.0529 85.824ZM17.1923 120.748C14.0261 120.748 11.4615 116.885 11.4615 112.124C11.4615 107.363 14.0261 103.5 17.1923 103.5C20.3586 103.5 22.9231 107.363 22.9231 112.124C22.9231 116.885 20.3586 120.748 17.1923 120.748ZM51.5769 109.249C48.4107 109.249 45.8461 105.386 45.8461 100.625C45.8461 95.864 48.4107 92.0011 51.5769 92.0011C54.7432 92.0011 57.3077 95.864 57.3077 100.625C57.3077 105.386 54.7432 109.249 51.5769 109.249ZM146.851 47.2669L80.9471 86.0935C80.73 86.2192 80.5497 86.3999 80.424 86.6174C80.2983 86.835 80.2316 87.0818 80.2308 87.3332V159.557C80.231 159.809 80.2974 160.057 80.4233 160.275C80.5491 160.493 80.73 160.675 80.9477 160.801C81.1655 160.927 81.4125 160.993 81.6638 160.993C81.9152 160.993 82.1621 160.926 82.3798 160.8L140.458 125.862C143.051 124.347 145.204 122.178 146.702 119.57C148.201 116.962 148.993 114.006 149 110.996V48.521C149.002 48.2679 148.937 48.0188 148.812 47.799C148.686 47.5792 148.506 47.3964 148.288 47.2692C148.07 47.1419 147.822 47.0747 147.57 47.0743C147.317 47.0739 147.069 47.1403 146.851 47.2669ZM97.4231 140.871C94.2568 140.871 91.6923 137.008 91.6923 132.247C91.6923 127.486 94.2568 123.623 97.4231 123.623C100.589 123.623 103.154 127.486 103.154 132.247C103.154 137.008 100.589 140.871 97.4231 140.871ZM97.4231 109.249C94.2568 109.249 91.6923 105.386 91.6923 100.625C91.6923 95.864 94.2568 92.0011 97.4231 92.0011C100.589 92.0011 103.154 95.864 103.154 100.625C103.154 105.386 100.589 109.249 97.4231 109.249ZM131.808 120.748C128.641 120.748 126.077 116.885 126.077 112.124C126.077 107.363 128.641 103.5 131.808 103.5C134.974 103.5 137.538 107.363 137.538 112.124C137.538 116.885 134.974 120.748 131.808 120.748ZM131.808 89.1263C128.641 89.1263 126.077 85.2634 126.077 80.5022C126.077 75.7409 128.641 71.878 131.808 71.878C134.974 71.878 137.538 75.7409 137.538 80.5022C137.538 85.2634 134.974 89.1263 131.808 89.1263Z" fill="#F18F26"/>
</svg>
