<svg width="140" height="140" viewBox="0 0 140 140" fill="none" xmlns="http://www.w3.org/2000/svg">
<circle cx="71" cy="70" r="54.5" stroke="#FF9E1D" stroke-width="5"/>
<path opacity="0.5" d="M70 107.5C90.7107 107.5 107.5 90.7107 107.5 70C107.5 49.2893 90.7107 32.5 70 32.5C49.2893 32.5 32.5 49.2893 32.5 70C32.5 90.7107 49.2893 107.5 70 107.5Z" fill="#FF9E1D"/>
<path d="M57.1563 60.4263C56.455 52.6113 50.4288 45.3288 47.5 42.6663L45.8875 41.2788C52.636 35.5967 61.178 32.4868 70 32.5C78.3025 32.5 85.975 35.2 92.185 39.76C93.0625 42.4263 91.39 47.995 89.635 50.6575C88.9975 51.6213 87.5575 52.8213 85.975 53.9575C82.4125 56.5188 77.9125 57.7825 75.625 62.5C75.0533 63.6877 74.9424 65.0453 75.3138 66.31C75.5388 67.135 75.6888 68.0313 75.6888 68.905C75.6963 71.7363 72.8313 73.78 70 73.75C62.635 73.6713 57.8125 67.735 57.1563 60.4263ZM75.3888 93.535C79.0938 86.5525 91.4425 86.5525 91.4425 86.5525C104.313 86.4175 106.053 78.6025 107.215 74.6538C106.19 82.8331 102.5 90.4471 96.7145 96.3195C90.9296 102.192 83.3717 105.996 75.2088 107.144C73.9975 104.594 72.565 98.8563 75.3888 93.535Z" fill="#FF9E1D"/>
</svg>
