<svg width="140" height="140" viewBox="0 0 140 140" fill="none" xmlns="http://www.w3.org/2000/svg">
<circle cx="71" cy="70" r="54.5" stroke="#FF9E1D" stroke-width="5"/>
<path d="M92.4395 44.2648C88.7605 35.8633 80.3257 30 70.5 30C60.6743 30 52.2395 35.8633 48.5605 44.2648C46.1078 44.4727 44.1786 46.5063 44.1786 49V58.5C44.1786 60.9937 46.1078 63.0273 48.5605 63.2352C52.2395 71.6367 60.6743 77.5 70.5 77.5C80.3257 77.5 88.7605 71.6367 92.4395 63.2352C94.8922 63.0273 96.8214 60.9937 96.8214 58.5V49C96.8214 46.5063 94.8922 44.4727 92.4395 44.2648ZM87.25 51.375V53.75C87.25 61.6172 80.8192 68 72.8929 68H68.1071C60.1808 68 53.75 61.6172 53.75 53.75V51.375C53.75 47.4414 56.9654 44.25 60.9286 44.25H80.0714C84.0346 44.25 87.25 47.4414 87.25 51.375ZM65.3105 54.1508L64.4132 51.0039C64.2786 50.5141 63.8299 50.1875 63.3214 50.1875C62.8129 50.1875 62.3643 50.5141 62.2297 51.0039L61.3324 54.1508L58.1618 55.0414C57.6683 55.175 57.3393 55.6203 57.3393 56.125C57.3393 56.6297 57.6683 57.075 58.1618 57.2086L61.3324 58.0992L62.2297 61.2461C62.3643 61.7359 62.8129 62.0625 63.3214 62.0625C63.8299 62.0625 64.2786 61.7359 64.4132 61.2461L65.3105 58.0992L68.481 57.2086C68.9746 57.075 69.3036 56.6297 69.3036 56.125C69.3036 55.6203 68.9746 55.175 68.481 55.0414L65.3105 54.1508ZM53.8547 76.9805C43.9842 80.8547 37 90.4141 37 101.591C37 104.026 38.9891 106 41.4417 106H56.1429V96.5C56.1429 93.8727 58.2815 91.75 60.9286 91.75H80.0714C82.7185 91.75 84.8571 93.8727 84.8571 96.5V106H99.5583C102.011 106 104 104.026 104 101.591C104 90.4141 97.0158 80.8547 87.1453 76.9805C82.4493 80.2906 76.7065 82.25 70.5 82.25C64.2935 82.25 58.5507 80.2906 53.8547 76.9805ZM63.3214 96.5C62.0054 96.5 60.9286 97.5687 60.9286 98.875V106H65.7143V98.875C65.7143 97.5687 64.6375 96.5 63.3214 96.5ZM77.6786 101.25C78.3132 101.25 78.9218 101 79.3706 100.554C79.8193 100.109 80.0714 99.5049 80.0714 98.875C80.0714 98.2451 79.8193 97.641 79.3706 97.1956C78.9218 96.7502 78.3132 96.5 77.6786 96.5C77.0439 96.5 76.4353 96.7502 75.9866 97.1956C75.5378 97.641 75.2857 98.2451 75.2857 98.875C75.2857 99.5049 75.5378 100.109 75.9866 100.554C76.4353 101 77.0439 101.25 77.6786 101.25Z" fill="#FF9E1D"/>
</svg>
