<svg width="140" height="140" viewBox="0 0 140 140" fill="none" xmlns="http://www.w3.org/2000/svg">
<circle cx="71" cy="70" r="54.5" stroke="#FF9E1D" stroke-width="5"/>
<path fill-rule="evenodd" clip-rule="evenodd" d="M81.5555 81.5228L100.478 62.6609C103.201 59.9448 104.567 58.5868 105.281 56.8563C106 55.1297 106 53.2074 106 49.3703V47.527C106 41.6209 106 38.6678 104.157 36.832C102.321 35 99.3603 35 93.4317 35H91.5921C87.74 35 85.8102 35 84.0797 35.7148C82.3493 36.4295 80.9837 37.7875 78.2601 40.5073L59.338 59.3693C56.1555 62.5443 54.1805 64.5117 53.4169 66.4152C53.1761 67.0171 53.052 67.6077 53.052 68.2322C53.052 70.8279 55.1473 72.9157 59.338 77.0951L59.9023 77.6556L66.5006 70.9595C66.9525 70.5011 67.5681 70.241 68.2119 70.2364C68.8556 70.2318 69.4748 70.4831 69.9333 70.9351C70.3917 71.387 70.6518 72.0026 70.6564 72.6464C70.661 73.2901 70.4097 73.9093 69.9577 74.3678L63.3369 81.0827L63.7845 81.5228C67.9752 85.6985 70.0668 87.79 72.67 87.79C73.2456 87.79 73.7986 87.6885 74.3516 87.4853C76.304 86.7668 78.294 84.7768 81.5593 81.5228H81.5555ZM90.4447 59.373C87.992 61.8182 84.012 61.8182 81.5555 59.373C80.9718 58.7921 80.5086 58.1015 80.1925 57.341C79.8765 56.5806 79.7138 55.7651 79.7138 54.9416C79.7138 54.118 79.8765 53.3026 80.1925 52.5421C80.5086 51.7816 80.9718 51.0911 81.5555 50.5101C84.012 48.0649 87.9883 48.0649 90.4447 50.5101C92.9012 52.9553 92.9012 56.9241 90.4447 59.373ZM33.6747 74.428C33.9402 74.6931 34.1508 75.008 34.2945 75.3547C34.4381 75.7013 34.5121 76.0728 34.5121 76.4481C34.5121 76.8233 34.4381 77.1948 34.2945 77.5415C34.1508 77.8881 33.9402 78.203 33.6747 78.4682L33.0878 79.0513C32.8489 79.291 32.7148 79.6157 32.7148 79.9541C32.7148 80.2926 32.8489 80.6172 33.0878 80.857C33.2067 80.9769 33.3483 81.0722 33.5042 81.1372C33.6601 81.2022 33.8274 81.2357 33.9963 81.2357C34.1653 81.2357 34.3325 81.2022 34.4884 81.1372C34.6444 81.0722 34.7859 80.9769 34.9048 80.857L41.3488 74.4242C41.8934 73.9322 42.6063 73.6684 43.3399 73.6875C44.0736 73.7065 44.7718 74.007 45.2901 74.5267C45.8083 75.0464 46.1068 75.7454 46.1238 76.4791C46.1409 77.2129 45.8751 77.925 45.3816 78.4682L38.9413 84.9009C37.6293 86.2115 35.8507 86.9476 33.9963 86.9476C32.1419 86.9476 30.3633 86.2115 29.0514 84.9009C28.4011 84.2521 27.8852 83.4813 27.5332 82.6328C27.1812 81.7842 27 80.8746 27 79.956C27 79.0373 27.1812 78.1277 27.5332 77.2792C27.8852 76.4307 28.4011 75.6599 29.0514 75.011L29.6382 74.428C30.1741 73.8939 30.8998 73.594 31.6564 73.594C32.413 73.594 33.1388 73.8939 33.6747 74.428ZM50.6895 90.2841C51.7917 91.4127 51.7729 93.2184 50.6444 94.3206L44.1364 100.686C43.591 101.193 42.8688 101.468 42.1238 101.451C41.3788 101.433 40.6702 101.125 40.1492 100.592C39.6282 100.06 39.3362 99.3442 39.3354 98.599C39.3346 97.8539 39.6252 97.1379 40.1451 96.6041L46.6531 90.239C47.1944 89.7099 47.9237 89.4175 48.6806 89.426C49.4376 89.4344 50.1601 89.7431 50.6895 90.2841ZM66.4291 95.6335C66.9643 96.1695 67.265 96.8961 67.265 97.6536C67.265 98.4111 66.9643 99.1377 66.4291 99.6737L59.9851 106.106C59.7461 106.346 59.612 106.671 59.612 107.009C59.612 107.348 59.7461 107.672 59.9851 107.912C60.4891 108.413 61.3017 108.413 61.8058 107.912L62.3926 107.329C62.9349 106.83 63.6492 106.559 64.3862 106.575C65.1232 106.59 65.8257 106.89 66.3467 107.411C66.8678 107.933 67.1669 108.636 67.1815 109.373C67.1962 110.11 66.9252 110.824 66.4253 111.366L65.8423 111.949C64.5301 113.26 62.7507 113.997 60.8954 113.997C59.0401 113.997 57.2607 113.26 55.9486 111.949C55.2983 111.3 54.7824 110.529 54.4304 109.68C54.0784 108.832 53.8972 107.922 53.8972 107.004C53.8972 106.085 54.0784 105.175 54.4304 104.327C54.7824 103.478 55.2983 102.708 55.9486 102.059L62.3926 95.626C62.9285 95.0915 63.6547 94.7916 64.4116 94.7923C65.1685 94.793 65.8942 95.098 66.4291 95.6335Z" fill="#FF9E1D"/>
<path opacity="0.5" d="M64.0403 47.8281L55.8094 56.0289C54.2971 57.5374 52.9127 58.9218 51.8143 60.1707C51.0734 60.9979 50.404 61.8864 49.813 62.8266L49.7302 62.7476L49.4293 62.4466C47.9969 61.0568 46.313 59.9524 44.4674 59.1926L44.0686 59.0346L42.846 58.5456C42.4646 58.3945 42.1266 58.1509 41.8626 57.8368C41.5987 57.5227 41.4169 57.1479 41.3337 56.7461C41.2505 56.3443 41.2685 55.9282 41.386 55.5351C41.5036 55.142 41.717 54.7842 42.0071 54.4941C45.6298 50.8827 49.9823 46.5415 52.0851 45.6688C53.9099 44.9032 55.9082 44.647 57.8671 44.9277C59.6352 45.191 61.3092 46.1014 64.0403 47.8281ZM78.0946 91.0254C78.7567 91.7025 79.1968 92.1765 79.5955 92.6806C80.1222 93.354 80.5887 94.065 80.9987 94.8136C81.4614 95.6525 81.8188 96.5516 82.5336 98.346C83.1166 99.8056 85.054 100.193 86.175 99.072L86.4496 98.8011C90.0723 95.1898 94.4248 90.8486 95.3013 88.757C96.0667 86.9361 96.3228 84.9415 96.0424 82.9863C95.779 81.2258 94.8687 79.5555 93.1382 76.8319L84.8809 85.0666C83.3348 86.609 81.9128 88.0234 80.6301 89.1294C79.8377 89.8292 78.9898 90.4632 78.0946 91.0254ZM52.1529 82.2603C52.4297 81.9979 52.6512 81.6828 52.8042 81.3334C52.9573 80.984 53.0388 80.6075 53.0439 80.2262C53.049 79.8448 52.9777 79.4662 52.8341 79.1129C52.6905 78.7595 52.4776 78.4385 52.2079 78.1688C51.9382 77.8991 51.6172 77.6862 51.2638 77.5426C50.9104 77.399 50.5319 77.3277 50.1505 77.3328C49.7691 77.3379 49.3926 77.4194 49.0433 77.5724C48.6939 77.7255 48.3787 77.947 48.1164 78.2238L40.0547 86.2817C39.7895 86.547 39.579 86.8619 39.4355 87.2085C39.2919 87.5552 39.218 87.9267 39.218 88.3018C39.218 88.677 39.2919 89.0485 39.4355 89.3951C39.579 89.7417 39.7895 90.0566 40.0547 90.3219C40.32 90.5872 40.635 90.7977 40.9816 90.9412C41.3282 91.0848 41.6997 91.1587 42.0749 91.1587C42.45 91.1587 42.8215 91.0848 43.1681 90.9412C43.5147 90.7977 43.8297 90.5872 44.095 90.3219L52.1529 82.2603ZM62.7199 92.816C62.9967 92.5537 63.2182 92.2385 63.3713 91.8892C63.5243 91.5398 63.6058 91.1633 63.6109 90.7819C63.6161 90.4005 63.5447 90.022 63.4011 89.6686C63.2575 89.3153 63.0446 88.9943 62.7749 88.7246C62.5052 88.4549 62.1842 88.2419 61.8308 88.0983C61.4775 87.9547 61.0989 87.8834 60.7176 87.8885C60.3362 87.8937 59.9597 87.9752 59.6103 88.1282C59.2609 88.2812 58.9458 88.5027 58.6834 88.7796L50.6782 96.781C50.1761 97.3235 49.9037 98.0393 49.9179 98.7783C49.9322 99.5173 50.2322 100.222 50.7548 100.745C51.2774 101.267 51.9822 101.567 52.7212 101.582C53.4602 101.596 54.176 101.323 54.7184 100.821L62.7199 92.816Z" fill="#FF9E1D"/>
</svg>
