<svg width="140" height="140" viewBox="0 0 140 140" fill="none" xmlns="http://www.w3.org/2000/svg">
<circle cx="71" cy="70" r="54.5" stroke="#FF9E1D" stroke-width="5"/>
<path d="M82.8333 95.6667V103H76.3433C75.0966 105.2 72.7133 106.667 70 106.667C67.2866 106.667 64.9033 105.2 63.6566 103H57.1666V95.6667H63.6566C64.28 94.5667 65.2333 93.6133 66.3333 92.99V88.3333H62.6666C60.65 88.3333 59 86.6833 59 84.6667V73.6667H48V88.3333C48 90.35 46.35 92 44.3333 92H37C34.9833 92 33.3333 90.35 33.3333 88.3333V55.3333C33.3333 53.3167 34.9833 51.6667 37 51.6667H44.3333C46.35 51.6667 48 53.3167 48 55.3333V66.3333H59V55.3333C59 53.3167 60.65 51.6667 62.6666 51.6667H66.3333V48H62.6666C60.65 48 59 46.35 59 44.3333V40.6667C59 38.65 60.65 37 62.6666 37H77.3333C79.35 37 81 38.65 81 40.6667V44.3333C81 46.35 79.35 48 77.3333 48H73.6666V51.6667H77.3333C79.35 51.6667 81 53.3167 81 55.3333V66.3333H92V55.3333C92 53.3167 93.65 51.6667 95.6666 51.6667H103C105.017 51.6667 106.667 53.3167 106.667 55.3333V88.3333C106.667 90.35 105.017 92 103 92H95.6666C93.65 92 92 90.35 92 88.3333V73.6667H81V84.6667C81 86.6833 79.35 88.3333 77.3333 88.3333H73.6666V92.99C74.7666 93.6133 75.72 94.5667 76.3433 95.6667H82.8333ZM37 84.6667V88.3333H44.3333V84.6667H37ZM37 77.3333V81H44.3333V77.3333H37ZM37 70V73.6667H44.3333V70H37ZM37 62.6667V66.3333H44.3333V62.6667H37ZM37 55.3333V59H44.3333V55.3333H37ZM95.6666 84.6667V88.3333H103V84.6667H95.6666ZM95.6666 77.3333V81H103V77.3333H95.6666ZM95.6666 70V73.6667H103V70H95.6666ZM95.6666 62.6667V66.3333H103V62.6667H95.6666ZM95.6666 55.3333V59H103V55.3333H95.6666Z" fill="#FF9E1D"/>
</svg>
