<svg width="140" height="140" viewBox="0 0 140 140" fill="none" xmlns="http://www.w3.org/2000/svg">
<circle cx="71" cy="70" r="54.5" stroke="#FF9E1D" stroke-width="5"/>
<path d="M67.125 38.375V35.5C67.125 34.7375 67.4279 34.0062 67.9671 33.4671C68.5062 32.9279 69.2375 32.625 70 32.625C70.7625 32.625 71.4938 32.9279 72.0329 33.4671C72.5721 34.0062 72.875 34.7375 72.875 35.5V38.375C72.875 39.1375 72.5721 39.8688 72.0329 40.4079C71.4938 40.9471 70.7625 41.25 70 41.25C69.2375 41.25 68.5062 40.9471 67.9671 40.4079C67.4279 39.8688 67.125 39.1375 67.125 38.375ZM70 47C65.451 47 61.0042 48.3489 57.2219 50.8762C53.4396 53.4035 50.4916 56.9956 48.7508 61.1983C47.01 65.401 46.5545 70.0255 47.4419 74.4871C48.3294 78.9486 50.5199 83.0468 53.7365 86.2635C56.9532 89.4801 61.0514 91.6706 65.5129 92.5581C69.9745 93.4455 74.599 92.99 78.8017 91.2492C83.0044 89.5084 86.5965 86.5604 89.1238 82.7781C91.6511 78.9958 93 74.549 93 70C92.9933 63.9021 90.568 58.0558 86.2561 53.7439C81.9442 49.432 76.0979 47.0067 70 47ZM44.9659 49.0341C45.5054 49.5735 46.2371 49.8766 47 49.8766C47.7629 49.8766 48.4946 49.5735 49.0341 49.0341C49.5735 48.4946 49.8766 47.7629 49.8766 47C49.8766 46.2371 49.5735 45.5054 49.0341 44.9659L46.1591 42.0909C45.6196 41.5515 44.8879 41.2484 44.125 41.2484C43.3621 41.2484 42.6304 41.5515 42.0909 42.0909C41.5515 42.6304 41.2484 43.3621 41.2484 44.125C41.2484 44.8879 41.5515 45.6196 42.0909 46.1591L44.9659 49.0341ZM44.9659 90.9659L42.0909 93.8409C41.5515 94.3804 41.2484 95.1121 41.2484 95.875C41.2484 96.6379 41.5515 97.3696 42.0909 97.9091C42.6304 98.4485 43.3621 98.7516 44.125 98.7516C44.8879 98.7516 45.6196 98.4485 46.1591 97.9091L49.0341 95.0341C49.3012 94.7669 49.5131 94.4498 49.6576 94.1008C49.8022 93.7518 49.8766 93.3778 49.8766 93C49.8766 92.6222 49.8022 92.2482 49.6576 91.8992C49.5131 91.5502 49.3012 91.2331 49.0341 90.9659C48.7669 90.6988 48.4498 90.4869 48.1008 90.3424C47.7518 90.1978 47.3778 90.1234 47 90.1234C46.6222 90.1234 46.2482 90.1978 45.8992 90.3424C45.5502 90.4869 45.2331 90.6988 44.9659 90.9659ZM93 49.875C93.3777 49.8753 93.7517 49.8012 94.1007 49.6569C94.4497 49.5126 94.7669 49.301 95.0341 49.0341L97.9091 46.1591C98.4485 45.6196 98.7516 44.8879 98.7516 44.125C98.7516 43.3621 98.4485 42.6304 97.9091 42.0909C97.3696 41.5515 96.6379 41.2484 95.875 41.2484C95.1121 41.2484 94.3804 41.5515 93.8409 42.0909L90.9659 44.9659C90.5634 45.368 90.2892 45.8805 90.1781 46.4385C90.067 46.9965 90.1239 47.5749 90.3417 48.1005C90.5595 48.6261 90.9283 49.0753 91.4016 49.3912C91.8748 49.7071 92.431 49.8754 93 49.875ZM95.0341 90.9659C94.4946 90.4265 93.7629 90.1234 93 90.1234C92.2371 90.1234 91.5054 90.4265 90.9659 90.9659C90.4265 91.5054 90.1234 92.2371 90.1234 93C90.1234 93.7629 90.4265 94.4946 90.9659 95.0341L93.8409 97.9091C94.1081 98.1762 94.4252 98.3881 94.7742 98.5326C95.1232 98.6772 95.4972 98.7516 95.875 98.7516C96.2528 98.7516 96.6268 98.6772 96.9758 98.5326C97.3248 98.3881 97.6419 98.1762 97.9091 97.9091C98.1762 97.6419 98.3881 97.3248 98.5326 96.9758C98.6772 96.6268 98.7516 96.2528 98.7516 95.875C98.7516 95.4972 98.6772 95.1232 98.5326 94.7742C98.3881 94.4252 98.1762 94.1081 97.9091 93.8409L95.0341 90.9659ZM38.375 67.125H35.5C34.7375 67.125 34.0062 67.4279 33.4671 67.9671C32.9279 68.5062 32.625 69.2375 32.625 70C32.625 70.7625 32.9279 71.4938 33.4671 72.0329C34.0062 72.5721 34.7375 72.875 35.5 72.875H38.375C39.1375 72.875 39.8688 72.5721 40.4079 72.0329C40.9471 71.4938 41.25 70.7625 41.25 70C41.25 69.2375 40.9471 68.5062 40.4079 67.9671C39.8688 67.4279 39.1375 67.125 38.375 67.125ZM70 98.75C69.2375 98.75 68.5062 99.0529 67.9671 99.5921C67.4279 100.131 67.125 100.863 67.125 101.625V104.5C67.125 105.262 67.4279 105.994 67.9671 106.533C68.5062 107.072 69.2375 107.375 70 107.375C70.7625 107.375 71.4938 107.072 72.0329 106.533C72.5721 105.994 72.875 105.262 72.875 104.5V101.625C72.875 100.863 72.5721 100.131 72.0329 99.5921C71.4938 99.0529 70.7625 98.75 70 98.75ZM104.5 67.125H101.625C100.863 67.125 100.131 67.4279 99.5921 67.9671C99.0529 68.5062 98.75 69.2375 98.75 70C98.75 70.7625 99.0529 71.4938 99.5921 72.0329C100.131 72.5721 100.863 72.875 101.625 72.875H104.5C105.262 72.875 105.994 72.5721 106.533 72.0329C107.072 71.4938 107.375 70.7625 107.375 70C107.375 69.2375 107.072 68.5062 106.533 67.9671C105.994 67.4279 105.262 67.125 104.5 67.125Z" fill="#FF9E1D"/>
</svg>
