<svg width="140" height="140" viewBox="0 0 140 140" fill="none" xmlns="http://www.w3.org/2000/svg">
<circle cx="71" cy="70" r="54.5" stroke="#FF9E1D" stroke-width="5"/>
<path opacity="0.5" fill-rule="evenodd" clip-rule="evenodd" d="M107.583 70C107.583 90.251 90.9811 106.667 70.5 106.667C66.306 106.672 62.1417 105.973 58.1846 104.599C56.5165 100.603 55.6609 96.3223 55.6667 92C55.6565 84.1759 58.4675 76.6045 63.5951 70.6453C65.8079 73.84 68.7755 76.4527 72.2404 78.2571C75.7053 80.0615 79.5631 81.003 83.4792 81C87.6331 81.0021 91.717 79.942 95.3343 77.9227C98.9516 75.9034 101.979 72.9935 104.123 69.4757C105.013 68.0237 107.583 68.3023 107.583 70Z" fill="#FF9E1D"/>
<path d="M33.4167 69.9999C33.4167 85.9829 43.7592 99.5753 58.1846 104.595C56.517 100.601 55.6614 96.321 55.6667 91.9999C55.6667 83.8563 58.6519 76.3983 63.5951 70.6453C60.8384 66.6795 59.3666 61.9787 59.375 57.1666C59.3729 53.0593 60.4451 49.0213 62.4873 45.4446C64.5296 41.868 67.4725 38.8743 71.0303 36.7543C72.5025 35.8743 72.217 33.3333 70.5 33.3333C50.0189 33.3333 33.4167 49.7489 33.4167 69.9999Z" fill="#FF9E1D"/>
</svg>
